<mxfile host="app.diagrams.net" agent="Mozilla/5.0 (Macintosh; Intel Mac OS X 10_15_7) AppleWebKit/537.36 (KHTML, like Gecko) Chrome/135.0.0.0 Safari/537.36" version="26.2.9">
  <diagram name="Page-1" id="Txm84f4l-TdTgEmjRu-w">
    <mxGraphModel dx="883" dy="1756" grid="1" gridSize="10" guides="1" tooltips="1" connect="1" arrows="1" fold="1" page="1" pageScale="1" pageWidth="827" pageHeight="1169" math="0" shadow="0">
      <root>
        <mxCell id="0" />
        <mxCell id="1" parent="0" />
        <mxCell id="eUfpLAYVMNaI3Z--KER--13" style="edgeStyle=orthogonalEdgeStyle;rounded=0;orthogonalLoop=1;jettySize=auto;html=1;" edge="1" parent="1" source="eUfpLAYVMNaI3Z--KER--1">
          <mxGeometry relative="1" as="geometry">
            <mxPoint x="195" y="30" as="targetPoint" />
          </mxGeometry>
        </mxCell>
        <mxCell id="eUfpLAYVMNaI3Z--KER--1" value="&lt;div style=&quot;background-color: transparent; font-family: sans-serif;&quot;&gt;&lt;span style=&quot;background-color: transparent; color: light-dark(rgb(0, 0, 0), rgb(237, 237, 237)); text-align: left; word-spacing: normal;&quot;&gt;&lt;font style=&quot;font-size: 12px;&quot;&gt;&lt;br&gt;&lt;/font&gt;&lt;/span&gt;&lt;/div&gt;&lt;div style=&quot;background-color: transparent; font-family: sans-serif;&quot;&gt;&lt;span style=&quot;background-color: transparent; color: light-dark(rgb(0, 0, 0), rgb(237, 237, 237)); text-align: left; word-spacing: normal;&quot;&gt;&lt;font style=&quot;font-size: 12px;&quot;&gt;&lt;br&gt;&lt;/font&gt;&lt;/span&gt;&lt;/div&gt;&lt;div style=&quot;background-color: transparent; font-family: sans-serif;&quot;&gt;&lt;span style=&quot;background-color: transparent; color: light-dark(rgb(0, 0, 0), rgb(237, 237, 237)); text-align: left; word-spacing: normal;&quot;&gt;&lt;font style=&quot;font-size: 12px;&quot;&gt;Service Python (script_runner)&lt;/font&gt;&lt;/span&gt;&lt;/div&gt;&lt;div style=&quot;background-color: transparent; font-family: sans-serif;&quot;&gt;&lt;br&gt;&lt;/div&gt;&lt;div style=&quot;background-color: transparent; font-family: sans-serif;&quot;&gt;&lt;br&gt;&lt;/div&gt;&lt;div style=&quot;background-color: transparent; font-family: sans-serif;&quot;&gt;&lt;span style=&quot;color: light-dark(rgb(0, 0, 0), rgb(237, 237, 237)); background-color: transparent; word-spacing: normal; text-align: left;&quot;&gt;&lt;font style=&quot;font-size: 12px;&quot;&gt;Dockerfile: python:3.9-slim&lt;/font&gt;&lt;/span&gt;&lt;div style=&quot;background-color: transparent;&quot;&gt;&lt;li style=&quot;color: black; margin-top: 0.4em; background-color: transparent;&quot;&gt;&lt;div&gt;&lt;code style=&quot;font-size: 10pt; text-shadow: none; direction: ltr; word-spacing: normal; word-break: normal; line-height: 1.5; tab-size: 4; hyphens: none; background-color: transparent;&quot; class=&quot;language-text&quot;&gt;&lt;br&gt;&lt;/code&gt;&lt;/div&gt;&lt;/li&gt;&lt;/div&gt;&lt;/div&gt;" style="rounded=0;whiteSpace=wrap;html=1;" vertex="1" parent="1">
          <mxGeometry x="50" y="-10" width="290" height="190" as="geometry" />
        </mxCell>
        <mxCell id="eUfpLAYVMNaI3Z--KER--2" value="&lt;div style=&quot;font-family: sans-serif;&quot;&gt;&lt;pre style=&quot;background-image: initial; background-position: initial; background-size: initial; background-repeat: initial; background-attachment: initial; background-origin: initial; background-clip: initial; word-spacing: normal; font-size: 14px; text-shadow: none; direction: ltr; word-break: normal; line-height: 1.3; tab-size: 4; hyphens: none; padding: 13px; margin-top: 0px; margin-bottom: 0.5em; overflow: auto; width: 696.006px; box-sizing: border-box; border-bottom-left-radius: 8px; border-bottom-right-radius: 8px;&quot;&gt;&lt;span style=&quot;color: light-dark(rgb(212, 212, 212), rgb(255, 251, 251)); font-family: Menlo, Monaco, Consolas, &amp;quot;Andale Mono&amp;quot;, &amp;quot;Ubuntu Mono&amp;quot;, &amp;quot;Courier New&amp;quot;, monospace; font-size: 13px; word-spacing: normal; background-color: transparent; white-space: normal;&quot;&gt;Service SQLite (db)&lt;/span&gt;&lt;/pre&gt;&lt;pre style=&quot;background-image: initial; background-position: initial; background-size: initial; background-repeat: initial; background-attachment: initial; background-origin: initial; background-clip: initial; word-spacing: normal; font-size: 14px; text-shadow: none; direction: ltr; word-break: normal; line-height: 1.3; tab-size: 4; hyphens: none; padding: 13px; margin-top: 0px; margin-bottom: 0.5em; overflow: auto; width: 696.006px; box-sizing: border-box; border-bottom-left-radius: 8px; border-bottom-right-radius: 8px;&quot;&gt;python:3.9-slim + sales.db&lt;/pre&gt;&lt;/div&gt;" style="rounded=0;whiteSpace=wrap;html=1;align=left;" vertex="1" parent="1">
          <mxGeometry x="600" y="-10" width="290" height="175" as="geometry" />
        </mxCell>
        <mxCell id="eUfpLAYVMNaI3Z--KER--8" value="" style="shape=flexArrow;endArrow=classic;html=1;rounded=0;width=47;endSize=12.7;entryX=0;entryY=0.5;entryDx=0;entryDy=0;exitX=1;exitY=0.5;exitDx=0;exitDy=0;endWidth=79;" edge="1" parent="1">
          <mxGeometry width="50" height="50" relative="1" as="geometry">
            <mxPoint x="340" y="30" as="sourcePoint" />
            <mxPoint x="600" y="30" as="targetPoint" />
            <Array as="points">
              <mxPoint x="520" y="30" />
            </Array>
          </mxGeometry>
        </mxCell>
        <mxCell id="eUfpLAYVMNaI3Z--KER--10" value="&lt;pre style=&quot;font-size: 10pt; text-align: start; background-color: transparent;&quot;&gt;&lt;code style=&quot;background-color: transparent; font-size: 10pt;&quot; class=&quot;language-*&quot;&gt;&lt;font style=&quot;color: light-dark(rgb(0, 0, 0), rgb(237, 227, 231));&quot;&gt;Volumen: /app/data/sales.db&lt;/font&gt;&lt;/code&gt;&lt;/pre&gt;" style="edgeLabel;html=1;align=center;verticalAlign=middle;resizable=0;points=[];" vertex="1" connectable="0" parent="eUfpLAYVMNaI3Z--KER--8">
          <mxGeometry x="-0.4776" y="5" relative="1" as="geometry">
            <mxPoint x="62" y="5" as="offset" />
          </mxGeometry>
        </mxCell>
        <mxCell id="eUfpLAYVMNaI3Z--KER--11" value="" style="shape=flexArrow;endArrow=classic;startArrow=classic;html=1;rounded=0;endWidth=60;endSize=13.7;width=53;startSize=11.32;startWidth=45;" edge="1" parent="1">
          <mxGeometry width="100" height="100" relative="1" as="geometry">
            <mxPoint x="340" y="150" as="sourcePoint" />
            <mxPoint x="604" y="150" as="targetPoint" />
            <Array as="points" />
          </mxGeometry>
        </mxCell>
        <mxCell id="eUfpLAYVMNaI3Z--KER--14" value="&lt;pre style=&quot;font-size: 10pt; text-align: start; background-color: transparent;&quot;&gt;&lt;code style=&quot;background-color: transparent; font-size: 10pt;&quot; class=&quot;language-*&quot;&gt;&lt;font style=&quot;color: light-dark(rgb(0, 0, 0), rgb(255, 255, 255));&quot;&gt;Resseau: app-network&lt;/font&gt;&lt;/code&gt;&lt;/pre&gt;" style="edgeLabel;html=1;align=center;verticalAlign=middle;resizable=0;points=[];" vertex="1" connectable="0" parent="eUfpLAYVMNaI3Z--KER--11">
          <mxGeometry x="-0.1389" y="-3" relative="1" as="geometry">
            <mxPoint as="offset" />
          </mxGeometry>
        </mxCell>
        <mxCell id="eUfpLAYVMNaI3Z--KER--16" value="&lt;pre style=&quot;word-spacing: normal; font-size: 14px; text-shadow: none; direction: ltr; word-break: normal; line-height: 1.3; tab-size: 4; hyphens: none; padding: 13px; margin-top: 0px; margin-bottom: 0.5em; overflow: auto; background-image: initial; background-position: initial; background-size: initial; background-repeat: initial; background-attachment: initial; background-origin: initial; background-clip: initial; width: 696.006px; box-sizing: border-box; border-bottom-left-radius: 8px; border-bottom-right-radius: 8px;&quot;&gt;&lt;code style=&quot;font-size: 13px; text-shadow: none; font-family: Menlo, Monaco, Consolas, &amp;quot;Andale Mono&amp;quot;, &amp;quot;Ubuntu Mono&amp;quot;, &amp;quot;Courier New&amp;quot;, monospace; direction: ltr; word-spacing: normal; word-break: normal; line-height: 1.5; tab-size: 4; hyphens: none;&quot; class=&quot;language-text&quot;&gt;&lt;font style=&quot;color: light-dark(rgb(212, 212, 212), rgb(245, 240, 240)); background-color: light-dark(rgb(32, 35, 39), rgb(0, 0, 0));&quot;&gt;Note:&lt;/font&gt;&lt;/code&gt;&lt;/pre&gt;&lt;pre style=&quot;word-spacing: normal; font-size: 14px; text-shadow: none; direction: ltr; word-break: normal; line-height: 1.3; tab-size: 4; hyphens: none; padding: 13px; margin-top: 0px; margin-bottom: 0.5em; overflow: auto; background-image: initial; background-position: initial; background-size: initial; background-repeat: initial; background-attachment: initial; background-origin: initial; background-clip: initial; width: 696.006px; box-sizing: border-box; border-bottom-left-radius: 8px; border-bottom-right-radius: 8px;&quot;&gt;&lt;code style=&quot;font-size: 13px; text-shadow: none; font-family: Menlo, Monaco, Consolas, &amp;quot;Andale Mono&amp;quot;, &amp;quot;Ubuntu Mono&amp;quot;, &amp;quot;Courier New&amp;quot;, monospace; direction: ltr; word-spacing: normal; word-break: normal; line-height: 1.5; tab-size: 4; hyphens: none;&quot; class=&quot;language-text&quot;&gt;&lt;font style=&quot;color: light-dark(rgb(212, 212, 212), rgb(245, 240, 240)); background-color: light-dark(rgb(32, 35, 39), rgb(0, 0, 0));&quot;&gt;Volumen partagÃ©:&lt;/font&gt;&lt;/code&gt;&lt;/pre&gt;&lt;pre style=&quot;word-spacing: normal; font-size: 14px; text-shadow: none; direction: ltr; word-break: normal; line-height: 1.3; tab-size: 4; hyphens: none; padding: 13px; margin-top: 0px; margin-bottom: 0.5em; overflow: auto; background-image: initial; background-position: initial; background-size: initial; background-repeat: initial; background-attachment: initial; background-origin: initial; background-clip: initial; width: 696.006px; box-sizing: border-box; border-bottom-left-radius: 8px; border-bottom-right-radius: 8px;&quot;&gt;&lt;code style=&quot;font-size: 13px; text-shadow: none; font-family: Menlo, Monaco, Consolas, &amp;quot;Andale Mono&amp;quot;, &amp;quot;Ubuntu Mono&amp;quot;, &amp;quot;Courier New&amp;quot;, monospace; direction: ltr; word-spacing: normal; word-break: normal; line-height: 1.5; tab-size: 4; hyphens: none;&quot; class=&quot;language-text&quot;&gt;&lt;font style=&quot;color: light-dark(rgb(212, 212, 212), rgb(245, 240, 240)); background-color: light-dark(rgb(32, 35, 39), rgb(0, 0, 0));&quot;&gt;./data:/app/data&lt;br&gt;Resseau: app-network&lt;/font&gt;&lt;/code&gt;&lt;/pre&gt;" style="shape=note;whiteSpace=wrap;html=1;backgroundOutline=1;darkOpacity=0.05;align=left;fillColor=light-dark(#FFFFFF,#995C14);" vertex="1" parent="1">
          <mxGeometry x="60" y="240" width="190" height="170" as="geometry" />
        </mxCell>
      </root>
    </mxGraphModel>
  </diagram>
</mxfile>
